# xmcd
#
# Track frame offsets:
#	150
#	16051
#	31557
#	45960
#	63378
#	73373
#	88702
#	105980
#	122638
#	137537
#	145965
#	169234
#	193190
#	204681
#	218125
#
# Disc length: 3130 seconds
#
# Revision: 0
# Processed by: cddbd v1.5.2PL0 Copyright (c) Steve Scherf et al.
# Submitted via: EasyCDDAExtractor 11.1.0.1
#
DISCID=d10c380f
DTITLE=Bosák Jiří - Pivní pěna - Lidovky K-M [CD3)
DYEAR=2007
DGENRE=Country
TTITLE0=Když jsem šel od vás
TTITLE1=Když jsem šel přes háj
TTITLE2=Když jsem šel v Praze po rynku
TTITLE3=Když se pšenka zelenala
TTITLE4=Koupím já si koně vraný
TTITLE5=Krásná pasačka
TTITLE6=La poloma
TTITLE7=Malý hošík černovlasý
TTITLE8=Mám já zahrádečku
TTITLE9=Mlynářovic Dorotička
TTITLE10=Mugraurovy koně
TTITLE11=Muzikanti, pojďte hrát
TTITLE12=Muzikantova písnička
TTITLE13=My jsme ti pražáci
TTITLE14=Mysliveček vyšel z lesa
EXTD=
EXTT0=
EXTT1=
EXTT2=
EXTT3=
EXTT4=
EXTT5=
EXTT6=
EXTT7=
EXTT8=
EXTT9=
EXTT10=
EXTT11=
EXTT12=
EXTT13=
EXTT14=
PLAYORDER=
